<svg width="1920" height="1080" viewBox="0 0 1920 1080" xmlns="http://www.w3.org/2000/svg"><rect width="1920" height="1080" fill="#df6688"/><path d="M 0,1080 C 0,1080 0,180 0,180 C 75.93589743589746,172.34102564102565 151.87179487179492,164.6820512820513 273,184 C 394.1282051282051,203.3179487179487 560.4487179487177,249.61282051282052 690,240 C 819.5512820512823,230.38717948717948 912.3333333333337,164.86666666666667 989,145 C 1065.6666666666663,125.13333333333333 1126.2179487179485,150.9205128205128 1220,175 C 1313.7820512820515,199.0794871794872 1440.7948717948718,221.45128205128205 1563,222 C 1685.2051282051282,222.54871794871795 1802.602564102564,201.27435897435896 1920,180 C 1920,180 1920,1080 1920,1080 Z" fill="#3d1053" opacity="0.09999999999999999"/><path d="M 0,1080 C 0,1080 0,360 0,360 C 96.46153846153842,366.64871794871794 192.92307692307685,373.29743589743583 286,377 C 379.07692307692315,380.70256410256417 468.76923076923083,381.4589743589744 596,368 C 723.2307692307692,354.5410256410256 888,326.8666666666666 1012,318 C 1136,309.1333333333334 1219.2307692307693,319.0743589743589 1312,340 C 1404.7692307692307,360.9256410256411 1507.0769230769229,392.83589743589744 1610,398 C 1712.9230769230771,403.16410256410256 1816.4615384615386,381.5820512820513 1920,360 C 1920,360 1920,1080 1920,1080 Z" fill="#3d1053" opacity="0.19999999999999998"/><path d="M 0,1080 C 0,1080 0,540 0,540 C 129.9897435897436,523.6 259.9794871794872,507.2 352,508 C 444.0205128205128,508.8 498.07179487179485,526.8 606,536 C 713.9282051282051,545.2 875.7333333333333,545.6 996,544 C 1116.2666666666667,542.4 1194.9948717948716,538.8000000000001 1281,537 C 1367.0051282051284,535.1999999999999 1460.2871794871796,535.2 1568,536 C 1675.7128205128204,536.8 1797.85641025641,538.4 1920,540 C 1920,540 1920,1080 1920,1080 Z" fill="#3d1053" opacity="0.3"/><path d="M 0,1080 C 0,1080 0,720 0,720 C 98.75641025641022,724.1692307692308 197.51282051282044,728.3384615384615 307,722 C 416.48717948717956,715.6615384615385 536.7051282051283,698.8153846153846 642,691 C 747.2948717948717,683.1846153846154 837.6666666666665,684.4 956,695 C 1074.3333333333335,705.6 1220.628205128205,725.5846153846154 1317,729 C 1413.371794871795,732.4153846153846 1459.8205128205127,719.2615384615384 1552,715 C 1644.1794871794873,710.7384615384616 1782.0897435897436,715.3692307692309 1920,720 C 1920,720 1920,1080 1920,1080 Z" fill="#3d1053" opacity="0.39999999999999997"/><path d="M 0,1080 C 0,1080 0,900 0,900 C 95.95641025641027,887.551282051282 191.91282051282053,875.1025641025641 307,883 C 422.08717948717947,890.8974358974359 556.3051282051281,919.1410256410257 679,918 C 801.6948717948719,916.8589743589743 912.8666666666666,886.3333333333334 1014,878 C 1115.1333333333334,869.6666666666666 1206.2282051282052,883.5256410256412 1301,883 C 1395.7717948717948,882.4743589743588 1494.2205128205128,867.5641025641027 1598,868 C 1701.7794871794872,868.4358974358973 1810.8897435897436,884.2179487179487 1920,900 C 1920,900 1920,1080 1920,1080 Z" fill="#3d1053" opacity="0.49999999999999994"/></svg>