<svg width="1920" height="1080" viewBox="0 0 1920 1080" xmlns="http://www.w3.org/2000/svg"><rect width="1920" height="1080" fill="#14151a"/><path d="M 0,1080 C 0,1080 0,180 0,180 C 107.23846153846151,192.37948717948717 214.47692307692301,204.75897435897437 321,205 C 427.523076923077,205.24102564102563 533.3307692307693,193.34358974358975 627,171 C 720.6692307692307,148.65641025641025 802.2,115.8666666666667 908,126 C 1013.8,136.1333333333333 1143.8692307692309,189.18974358974359 1270,194 C 1396.1307692307691,198.81025641025641 1518.3230769230768,155.37435897435896 1626,145 C 1733.6769230769232,134.62564102564104 1826.8384615384616,157.3128205128205 1920,180 C 1920,180 1920,1080 1920,1080 Z" fill="#0a0a0d" opacity="0.09999999999999999"/><path d="M 0,1080 C 0,1080 0,360 0,360 C 124.16666666666666,395.96923076923076 248.33333333333331,431.9384615384615 363,427 C 477.6666666666667,422.0615384615385 582.8333333333334,376.2153846153846 687,367 C 791.1666666666666,357.7846153846154 894.3333333333333,385.2 994,403 C 1093.6666666666667,420.8 1189.8333333333335,428.9846153846154 1297,413 C 1404.1666666666665,397.0153846153846 1522.3333333333333,356.86153846153843 1628,344 C 1733.6666666666667,331.13846153846157 1826.8333333333335,345.5692307692308 1920,360 C 1920,360 1920,1080 1920,1080 Z" fill="#0a0a0d" opacity="0.19999999999999998"/><path d="M 0,1080 C 0,1080 0,540 0,540 C 127.75384615384615,540.8384615384616 255.5076923076923,541.6769230769231 363,555 C 470.4923076923077,568.3230769230769 557.7230769230769,594.1307692307691 658,606 C 758.2769230769231,617.8692307692309 871.5999999999999,615.8000000000002 987,589 C 1102.4,562.1999999999998 1219.876923076923,510.66923076923064 1324,498 C 1428.123076923077,485.33076923076936 1518.8923076923077,511.5230769230769 1616,525 C 1713.1076923076923,538.4769230769231 1816.5538461538463,539.2384615384615 1920,540 C 1920,540 1920,1080 1920,1080 Z" fill="#0a0a0d" opacity="0.3"/><path d="M 0,1080 C 0,1080 0,720 0,720 C 118.5871794871795,722.5512820512821 237.174358974359,725.1025641025642 347,714 C 456.825641025641,702.8974358974358 557.8897435897436,678.1410256410256 654,663 C 750.1102564102564,647.8589743589744 841.2666666666664,642.3333333333334 950,676 C 1058.7333333333336,709.6666666666666 1185.04358974359,782.525641025641 1281,778 C 1376.95641025641,773.474358974359 1442.5589743589742,691.5641025641025 1544,669 C 1645.4410256410258,646.4358974358975 1782.7205128205128,683.2179487179487 1920,720 C 1920,720 1920,1080 1920,1080 Z" fill="#0a0a0d" opacity="0.39999999999999997"/><path d="M 0,1080 C 0,1080 0,900 0,900 C 122.29999999999998,874.2076923076922 244.59999999999997,848.4153846153846 353,862 C 461.40000000000003,875.5846153846154 555.9000000000001,928.5461538461539 661,940 C 766.0999999999999,951.4538461538461 881.8,921.4 997,890 C 1112.2,858.6 1226.8999999999999,825.8538461538462 1311,837 C 1395.1000000000001,848.1461538461538 1448.6000000000001,903.1846153846154 1545,921 C 1641.3999999999999,938.8153846153846 1780.6999999999998,919.4076923076923 1920,900 C 1920,900 1920,1080 1920,1080 Z" fill="#0a0a0d" opacity="0.49999999999999994"/></svg>